name D:\PhD\Datasets\SharingData_IBEC_VALDUCE\DC_Healthy_0001.mot
datacolumns 46
datarows 6
range 0.01000000 0.06000000
endheader
                time	         pelvis_tilt	     pelvis_rotation	           pelvis_tx	           pelvis_ty	           pelvis_tz	       hip_flexion_r	     hip_adduction_r	      hip_rotation_r	        knee_angle_r	       ankle_angle_r	    subtalar_angle_r	         mtp_angle_r	       hip_flexion_l	     hip_adduction_l	      hip_rotation_l	        knee_angle_l	       ankle_angle_l	    subtalar_angle_l	         mtp_angle_l	    lumbar_extension	      lumbar_bending	     lumbar_rotation	          arm_flex_r	           arm_add_r	           arm_rot_r	        elbow_flex_r	           pro_sup_r	        wrist_flex_r	         wrist_dev_r	          arm_flex_l	           arm_add_l	           arm_rot_l	        elbow_flex_l	           pro_sup_l	        wrist_flex_l	         wrist_dev_l	          end_eff_tx	          end_eff_ty	          end_eff_tz	             goal_tx	             goal_ty	             goal_tz	            elbow_tx	            elbow_ty	            elbow_tz	
          0.01000000	          0.00000000	          0.00000000	        354.13861252	        495.68542856	        349.94681329	          0.00000000	          0.00000000	          0.00000000	          0.00000000	          0.00000000	          0.00000000	          0.00000000	          0.00000000	          0.00000000	          0.00000000	          0.00000000	          0.00000000	          0.00000000	          0.00000000	         -0.00000002	          0.00000020	          0.00000001	         32.78364182	        -14.70121574	         27.15983772	         43.40932083	         92.60752869	          0.00000000	          0.00000000	          0.00000000	          0.00000000	          0.00000000	          0.00000000	          0.00000000	          0.00000000	          0.00000000	        790.27948991	        295.48743605	        413.62678968	        757.82205253	        394.40480340	        398.12214433	        427.90267733	        335.53524777	        596.50756096	
          0.02000000	          0.00000000	          0.00000000	        353.88996959	        495.25731550	        349.81517328	          0.00000000	          0.00000000	          0.00000000	          0.00000000	          0.00000000	          0.00000000	          0.00000000	          0.00000000	          0.00000000	          0.00000000	          0.00000000	          0.00000000	          0.00000000	          0.00000000	          0.20887263	          0.28725973	         -0.15356494	         32.67161179	        -14.88069057	         27.48650360	         43.40915680	         92.62701416	          0.00000000	          0.00000000	          0.00000000	          0.00000000	          0.00000000	          0.00000000	          0.00000000	          0.00000000	          0.00000000	        790.32199180	        295.46982875	        413.62884730	        757.76251712	        394.35774155	        398.15714743	        427.89524873	        335.58383024	        596.48132378	
          0.03000000	          0.00000000	          0.00000000	        354.08572892	        495.70143220	        349.90603125	          0.00000000	          0.00000000	          0.00000000	          0.00000000	          0.00000000	          0.00000000	          0.00000000	          0.00000000	          0.00000000	          0.00000000	          0.00000000	          0.00000000	          0.00000000	          0.00000000	          0.00050922	         -0.01649813	         -0.00462014	         32.83008957	        -14.72836399	         27.20010185	         43.39831161	         92.64460754	          0.00000000	          0.00000000	          0.00000000	          0.00000000	          0.00000000	          0.00000000	          0.00000000	          0.00000000	          0.00000000	        790.34830975	        295.48541683	        413.68208461	        757.78887896	        394.35407325	        398.13579144	        428.00410865	        335.69347289	        596.48244786	
          0.04000000	          0.00000000	          0.00000000	        353.93432191	        495.44133364	        349.79721538	          0.00000000	          0.00000000	          0.00000000	          0.00000000	          0.00000000	          0.00000000	          0.00000000	          0.00000000	          0.00000000	          0.00000000	          0.00000000	          0.00000000	          0.00000000	          0.00000000	         -0.21818098	          0.29806978	         -0.19599085	         32.86845779	        -14.47295284	         27.66125298	         43.37992477	         92.68698883	          0.00000000	          0.00000000	          0.00000000	          0.00000000	          0.00000000	          0.00000000	          0.00000000	          0.00000000	          0.00000000	        790.21987357	        296.25874737	        413.87305553	        757.79105492	        394.35772467	        398.14130882	        427.99667859	        335.74123440	        596.45675133	
          0.05000000	          0.00000000	          0.00000000	        353.89146299	        495.43480135	        349.78065402	          0.00000000	          0.00000000	          0.00000000	          0.00000000	          0.00000000	          0.00000000	          0.00000000	          0.00000000	          0.00000000	          0.00000000	          0.00000000	          0.00000000	          0.00000000	          0.00000000	         -0.23009393	          0.29314533	         -0.20176090	         32.89796829	        -14.48152924	         27.67650604	         43.36746216	         92.43071747	          0.00000000	          0.00000000	          0.00000000	          0.00000000	          0.00000000	          0.00000000	          0.00000000	          0.00000000	          0.00000000	        790.25524342	        296.31034226	        413.86646079	        757.82432705	        394.39914859	        398.14685623	        428.09563974	        335.91239767	        596.53139190	
          0.06000000	          0.00000000	          0.00000000	        353.90588166	        495.45318373	        349.80077531	          0.00000000	          0.00000000	          0.00000000	          0.00000000	          0.00000000	          0.00000000	          0.00000000	          0.00000000	          0.00000000	          0.00000000	          0.00000000	          0.00000000	          0.00000000	          0.00000000	         -0.24202485	          0.27131912	         -0.13763674	         32.82313538	        -14.41212273	         27.51261711	         43.36049652	         92.44993591	          0.00000000	          0.00000000	          0.00000000	          0.00000000	          0.00000000	          0.00000000	          0.00000000	          0.00000000	          0.00000000	        790.11554624	        296.27465803	        413.84078458	        757.45762214	        394.04510157	        398.21281165	        428.13533349	        335.93531024	        596.51194533	
